<mxfile host="app.diagrams.net" agent="Mozilla/5.0 (X11; Linux x86_64) AppleWebKit/537.36 (KHTML, like Gecko) Chrome/134.0.0.0 Safari/537.36" version="27.0.3">
  <diagram name="Page-1" id="ObiTWYSn51qfLnvYvxL8">
    <mxGraphModel>
      <root>
        <mxCell id="0" />
        <mxCell id="1" parent="0" />
        <mxCell id="2" value="Server Side" style="whiteSpace=wrap;strokeWidth=2;" vertex="1" parent="1">
          <mxGeometry x="8" y="183" width="748" height="244" as="geometry" />
        </mxCell>
        <mxCell id="3" value="User Interaction" style="whiteSpace=wrap;strokeWidth=2;" vertex="1" parent="1">
          <mxGeometry x="45" y="8" width="553" height="104" as="geometry" />
        </mxCell>
        <mxCell id="4" value="Frontend: Next.js" style="whiteSpace=wrap;strokeWidth=2;" vertex="1" parent="1">
          <mxGeometry x="198" y="33" width="182" height="54" as="geometry" />
        </mxCell>
        <mxCell id="5" value="Backend: Flask" style="whiteSpace=wrap;strokeWidth=2;" vertex="1" parent="1">
          <mxGeometry x="488" y="208" width="169" height="54" as="geometry" />
        </mxCell>
        <mxCell id="6" value="SocketIO Server" style="whiteSpace=wrap;strokeWidth=2;" vertex="1" parent="1">
          <mxGeometry x="44" y="341" width="177" height="54" as="geometry" />
        </mxCell>
        <mxCell id="7" value="Database" style="shape=cylinder3;boundedLbl=1;backgroundOutline=1;size=10;strokeWidth=2;whiteSpace=wrap;" vertex="1" parent="1">
          <mxGeometry x="550" y="333" width="84" height="69" as="geometry" />
        </mxCell>
        <mxCell id="8" value="Static File Server" style="whiteSpace=wrap;strokeWidth=2;" vertex="1" parent="1">
          <mxGeometry x="256" y="208" width="182" height="54" as="geometry" />
        </mxCell>
        <mxCell id="9" value="API Calls" style="curved=1;startArrow=none;endArrow=block;exitX=1;exitY=0.81;entryX=0.5;entryY=0;" edge="1" parent="1" source="4" target="5">
          <mxGeometry relative="1" as="geometry">
            <Array as="points">
              <mxPoint x="572" y="112" />
            </Array>
          </mxGeometry>
        </mxCell>
        <mxCell id="10" value="WebSockets" style="curved=1;startArrow=none;endArrow=block;exitX=0;exitY=0.88;entryX=0.9;entryY=-0.01;" edge="1" parent="1" source="5" target="6">
          <mxGeometry relative="1" as="geometry">
            <Array as="points">
              <mxPoint x="316" y="298" />
            </Array>
          </mxGeometry>
        </mxCell>
        <mxCell id="11" value="Real-time Communication" style="curved=1;startArrow=none;endArrow=block;exitX=0.49;exitY=-0.01;entryX=0.04;entryY=1;" edge="1" parent="1" source="6" target="4">
          <mxGeometry relative="1" as="geometry">
            <Array as="points">
              <mxPoint x="127" y="298" />
              <mxPoint x="127" y="112" />
            </Array>
          </mxGeometry>
        </mxCell>
        <mxCell id="12" value="Database Queries" style="curved=1;startArrow=none;endArrow=block;exitX=0.75;exitY=1;entryX=0.96;entryY=0;" edge="1" parent="1" source="5" target="7">
          <mxGeometry relative="1" as="geometry">
            <Array as="points">
              <mxPoint x="669" y="298" />
            </Array>
          </mxGeometry>
        </mxCell>
        <mxCell id="13" value="Data Management" style="curved=1;startArrow=none;endArrow=block;exitX=0.05;exitY=0;entryX=0.35;entryY=1;" edge="1" parent="1" source="7" target="5">
          <mxGeometry relative="1" as="geometry">
            <Array as="points">
              <mxPoint x="515" y="298" />
            </Array>
          </mxGeometry>
        </mxCell>
        <mxCell id="14" value="Static Assets" style="curved=1;startArrow=none;endArrow=block;exitX=0.84;exitY=1;entryX=0.67;entryY=0;" edge="1" parent="1" source="4" target="8">
          <mxGeometry relative="1" as="geometry">
            <Array as="points">
              <mxPoint x="408" y="112" />
              <mxPoint x="408" y="183" />
            </Array>
          </mxGeometry>
        </mxCell>
        <mxCell id="15" value="Serves" style="curved=1;startArrow=none;endArrow=block;exitX=0.25;exitY=0;entryX=0.42;entryY=1;" edge="1" parent="1" source="8" target="4">
          <mxGeometry relative="1" as="geometry">
            <Array as="points">
              <mxPoint x="260" y="183" />
              <mxPoint x="260" y="112" />
            </Array>
          </mxGeometry>
        </mxCell>
      </root>
    </mxGraphModel>
  </diagram>
</mxfile>
